<svg xmlns="http://www.w3.org/2000/svg" viewBox="0 0 470.21 142.08"><defs></defs><g id="Warstwa_2" data-name="Warstwa 2"><g id="Tryb_izolacji" data-name="Tryb izolacji"><path class="cls-1" fill="#e9530e" d="M107.83,79.5c3.85,4.88,5.37,9,3.88,11.62-3,5.26-17.28,3.11-35.1-4.45.28-5,.44-10.26.44-15.63,0-39.23-7.92-71-17.69-71C53.84,0,48.91,10.14,45.67,26c2.35-5.77,5.17-9.14,8.2-9.14C62,16.89,68.62,41.13,68.62,71c0,4.06-.12,8-.35,11.81-3.51-1.72-7.1-3.61-10.72-5.67C31.66,62.43,13.93,44.76,18,37.7c1.49-2.62,5.8-3.4,12-2.59-15.36-5-26.57-5.76-29.29-1-4.81,8.46,18.81,31,52.78,50.35,4.77,2.72,9.48,5.22,14.08,7.5-2.23,19.51-7.48,33.22-13.61,33.22-3,0-5.85-3.37-8.2-9.15,3.24,15.9,8.17,26,13.69,26,7.58,0,14-19.18,16.56-46.12,24.38,11,44,14.76,47.7,8.23C126.34,99.41,120,90.15,107.83,79.5Z"></path><path class="cls-1" fill="#e9530e" d="M10.67,97.19c-1.92-5.5,2-12.83,5.83-17.7C4.3,90.09-2.09,99.34.61,104.12s13.87,4.1,29.19-.84C29.8,103.28,13.3,104.72,10.67,97.19Z"></path><path class="cls-1" fill="#e9530e" d="M113.43,41.07c1.95,5.49-1.9,12.84-5.74,17.72,12.15-10.66,18.49-19.93,15.76-24.7s-13.88-4-29.18,1C94.27,35.08,110.76,33.55,113.43,41.07Z"></path><path  class="cls-2" fill="#575756" d="M158.16,81.56a10.4,10.4,0,0,0,7.94,3.67c3.38,0,6.05-1.78,6.05-5.51,0-6.34-13.75-5.81-13.75-13.75,0-4.2,3.44-7.64,8.83-7.64a12.14,12.14,0,0,1,8.35,3.32l-1.71,2.84a9.66,9.66,0,0,0-6.46-3c-3.62,0-5,2.25-5,4.15,0,5.57,13.75,4.56,13.75,14,0,5.33-4.21,8.83-10,8.83a13.31,13.31,0,0,1-10-4.21Z"></path><path  class="cls-2" fill="#575756" d="M184,103l9.25-18.13-11.8-25.72h4.39L195.37,81,205.8,59.16h4.32l-22,43.85Z"></path><path  class="cls-2" fill="#575756" d="M237.2,87.66V70.83c0-6.1-2-8.77-7.59-8.77a12.21,12.21,0,0,0-8.47,3.79V87.66h-3.91V59.16h3.91v3a14.27,14.27,0,0,1,9.6-3.79c6.64,0,10.37,3.26,10.37,10.6V87.66Z"></path><path  class="cls-2" fill="#575756" d="M276.83,83.69c-1.89,2.61-6.22,4.74-11.85,4.74-8.47,0-14.69-6-14.69-14.87S256,58.39,264.81,58.39s12.85,7,12.85,14.22v1.07h-23.4c0,7,4.62,11.37,11.55,11.37A12,12,0,0,0,275,81.32Zm-3.2-13.15c-.47-4.75-3.43-8.77-9-8.77-5,0-9.42,3-10.19,8.77Z"></path><path  class="cls-2" fill="#575756" d="M287,87.66V59.16h3.91v4.09c.36-1.31,2.85-4.86,6.11-4.86a10.48,10.48,0,0,1,4.79,1.3l-1.83,3.74a5.81,5.81,0,0,0-3.32-1.19c-3.32,0-5.45,3.67-5.75,6V87.66Z"></path><path  class="cls-2" fill="#575756" d="M346,87.66V69.06c0-5.1-2.31-7-6.4-7-3.67,0-6.93,2.43-8.29,3.85a19.08,19.08,0,0,1,.18,2.61V87.66H327.6V69c0-5.15-2.36-6.93-6.51-6.93a12,12,0,0,0-8,3.73V87.66h-3.91V59.16h3.91v3a14.78,14.78,0,0,1,9.48-3.79,8.42,8.42,0,0,1,7.76,4.38c2.13-1.83,6-4.38,10.55-4.38,5.51,0,9.06,3.2,9.06,10.31v19Z"></path><path  class="cls-2" fill="#575756" d="M385.67,83.69c-1.9,2.61-6.22,4.74-11.85,4.74-8.48,0-14.7-6-14.7-14.87s5.75-15.17,14.52-15.17,12.86,7,12.86,14.22v1.07H363.09c0,7,4.62,11.37,11.56,11.37a12,12,0,0,0,9.18-3.73Zm-3.2-13.15c-.48-4.75-3.44-8.77-9-8.77-5,0-9.42,3-10.19,8.77Z"></path><path  class="cls-2" fill="#575756" d="M417.54,39.07h3.91V84.58a19.94,19.94,0,0,1-11.91,3.85c-7.94,0-15.52-4.68-15.52-14.58,0-9.36,6-15.46,14.63-15.46a13.8,13.8,0,0,1,8.89,3.08Zm0,26.84c-1.48-2.37-5.15-4.08-8.83-4.08-6.4,0-10.6,4.5-10.6,12,0,7.35,5.33,11.2,11.43,11.2a14,14,0,0,0,8-2.43Z"></path><path  class="cls-2" fill="#575756" d="M434.78,53.47a3,3,0,1,1,0-6,3,3,0,1,1,0,6Zm-2,34.19V59.16h3.92v28.5Z"></path><path  class="cls-2" fill="#575756" d="M470.21,84.4c-2.67,2.49-6.93,4-12.44,4-8.3,0-12.15-4.92-12.15-10.31,0-6.4,6.81-9.3,11.79-9.3,3,0,6.75,1,8.95,3.2v-4c0-3.56-2.73-6.28-7.83-6.28a20.2,20.2,0,0,0-7.93,1.72l-1.48-3a21.43,21.43,0,0,1,9.48-2.13c9.24,0,11.61,4.38,11.61,10.72Zm-3.85-9.06A12.14,12.14,0,0,0,457.82,72c-3.67,0-8.11,2-8.11,6.16,0,4.62,3.79,7,8.29,7a13.53,13.53,0,0,0,8.36-2.43Z"></path></g></g></svg>