<?xml version="1.0" encoding="UTF-8"?>
<svg width="176px" height="24px" viewBox="0 0 176 24" version="1.1" xmlns="http://www.w3.org/2000/svg" xmlns:xlink="http://www.w3.org/1999/xlink">
    <!-- Generator: Sketch 51.3 (57544) - http://www.bohemiancoding.com/sketch -->
    <title>Logo/Logo1</title>
    <desc>Created with Sketch.</desc>
    <defs>
        <polygon id="path-1" points="0.103192182 6.00321633e-05 9.77401954 6.00321633e-05 9.77401954 24 0.103192182 24"></polygon>
        <polygon id="path-3" points="0 6.00321633e-05 9.67357915 6.00321633e-05 9.67357915 24 0 24"></polygon>
        <polygon id="path-5" points="0.420508143 0.18654 15.4788274 0.18654 15.4788274 23.77734 0.420508143 23.77734"></polygon>
    </defs>
    <g id="Symbols" stroke="none" stroke-width="1" fill="none" fill-rule="evenodd">
        <g id="Navigation-bar/Navigation-bar-opacity-Copy" transform="translate(-80.000000, -38.000000)">
            <g id="Navigation-bar/Navigation-bar-Copy">
                <g id="Logo/Logo1" transform="translate(80.000000, 38.000000)">
                    <g id="Page-1">
                        <path d="M44.0165107,23.1225 C43.9993121,23.0967 43.9803935,23.0715 43.9580352,23.0439 L33.6795205,11.7669 L43.5704912,0.9201 C43.5871166,0.9009 43.5968625,0.8847 43.6111948,0.8673 C43.6083283,0.8661 43.6083283,0.8631 43.6054619,0.8583 C43.6668039,0.7899 43.7040678,0.7005 43.7040678,0.6033 C43.7040678,0.3969 43.5521459,0.2361 43.362387,0.2247 L43.362387,0.2217 L40.0854619,0.2217 C39.7741655,0.2247 39.4932534,0.3579 39.2822827,0.5661 C39.2822827,0.5661 39.2822827,0.5649 39.2805629,0.5649 L30.4742567,10.2369 L30.4742567,0.8823 C30.4645107,0.2901 30.2695922,0.2217 29.7381524,0.2217 L27.9403153,0.2217 C27.4576052,0.2217 27.2013446,0.2889 27.2013446,0.9273 L27.2013446,23.0715 C27.2013446,23.7099 27.4576052,23.7771 27.9403153,23.7771 L29.7381524,23.7771 C30.2695922,23.7771 30.4645107,23.7069 30.4742567,23.1165 L30.4742567,13.3029 L39.6451752,23.3757 L39.6474684,23.3733 C39.8595857,23.6163 40.1622827,23.7711 40.5033902,23.7771 L43.7849016,23.7771 C43.7849016,23.7723 43.7894879,23.7723 43.7849016,23.7711 C43.977527,23.7585 44.1265824,23.5959 44.1265824,23.3973 C44.1265824,23.2863 44.0853055,23.1915 44.0165107,23.1225" id="Fill-1" fill="#939598"></path>
                        <path d="M64.3965655,2.7087 L64.3965655,0.8229 C64.3965655,0.4203 64.3644612,0.2211 63.8811779,0.2211 L48.0532169,0.2211 C47.5716534,0.2211 47.5395492,0.4203 47.5395492,0.8229 L47.5395492,2.7087 C47.5395492,3.1149 47.5716534,3.2817 48.0532169,3.2817 L54.2808651,3.2817 L54.2808651,23.0715 C54.2808651,23.7099 54.5405655,23.7771 55.0209824,23.7771 L56.8492039,23.7771 C57.3966958,23.7771 57.5893212,23.7099 57.5893212,23.0715 L57.5893212,3.2817 L63.8811779,3.2817 C64.3644612,3.2817 64.3965655,3.1149 64.3965655,2.7087" id="Fill-3" fill="#939598"></path>
                        <path d="M78.9339935,1.56582 C78.5797003,0.58962 78.2896156,0.22122 77.3614593,0.18642 L75.7860586,0.18642 C74.7919739,0.18642 74.3419414,0.45462 73.955544,1.56582 L66.7326645,23.30682 C66.6357785,23.60742 66.7326645,23.77722 67.0227492,23.77722 L69.1811857,23.77722 C69.5045212,23.77722 69.6948534,23.64282 69.7905928,23.33922 L74.7919739,8.73462 L76.3656547,3.78702 L76.5582801,3.78702 L78.0023974,8.69982 L83.1006645,23.33922 C83.2629055,23.77722 83.4549577,23.77722 83.8086775,23.77722 L85.9321433,23.77722 C86.222228,23.77722 86.2864365,23.60742 86.1889772,23.30682 L78.9339935,1.56582 Z" id="Fill-5" fill="#939598"></path>
                        <path d="M128.009673,3.78714 L129.454364,8.69994 L134.555497,23.33874 C134.713725,23.77734 134.905777,23.77734 135.26007,23.77734 L137.384109,23.77734 C137.671901,23.77734 137.736109,23.60754 137.641517,23.30694 L130.38596,1.56594 C130.033386,0.58974 129.742728,0.22134 128.811132,0.18654 L127.237451,0.18654 C126.24394,0.18654 125.793334,0.45474 125.409803,1.56594 L118.183484,23.30694 C118.088891,23.60754 118.183484,23.77734 118.472422,23.77734 L120.633152,23.77734 C120.953621,23.77734 121.14682,23.64294 121.244852,23.33874 L126.24394,8.73474 L127.817048,3.78714 L128.009673,3.78714 Z" id="Fill-7" fill="#2DB5DA"></path>
                        <path d="M149.920641,22.3977 L157.176198,0.6573 C157.270791,0.3531 157.207156,0.1863 156.917071,0.1863 L154.795325,0.1863 C154.441032,0.1863 154.249553,0.1863 154.089605,0.6261 L148.989045,15.2625 L147.544354,20.1753 L147.352302,20.1753 L145.778621,15.2289 L140.77896,0.6261 C140.682648,0.3213 140.488876,0.1863 140.168407,0.1863 L138.007677,0.1863 C137.718739,0.1863 137.625293,0.3531 137.718739,0.6573 L144.944485,22.3977 C145.326296,23.5083 145.778621,23.7771 146.770986,23.7771 L148.346387,23.7771 C149.27913,23.7417 149.569214,23.3733 149.920641,22.3977" id="Fill-9" fill="#2DB5DA"></path>
                        <g id="Group-13" transform="translate(12.039088, 0.000000)">
                            <mask id="mask-2" fill="white">
                                <use xlink:href="#path-1"></use>
                            </mask>
                            <g id="Clip-12"></g>
                            <path d="M0.476977199,0.0096 C0.35429316,-0.0096 0.103192182,-0.0342 0.103192182,0.3132 L0.103192182,3.144 C0.103192182,3.5004 0.270592834,3.5094 0.355439739,3.5316 C3.88575896,4.3758 6.52977199,7.842 6.52977199,11.9994 C6.52977199,16.0368 4.03194788,19.4238 0.654123779,20.388 C0.472964169,20.4426 0.103192182,20.4684 0.103192182,20.9952 L0.103192182,23.5632 C0.103192182,24.1248 0.430540717,23.9964 0.595648208,23.9658 C5.80628013,22.9728 9.77401954,17.9964 9.77401954,11.9994 C9.77401954,5.9556 5.74952443,0.9468 0.476977199,0.0096" id="Fill-11" fill="#939598" mask="url(#mask-2)"></path>
                        </g>
                        <g id="Group-16">
                            <mask id="mask-4" fill="white">
                                <use xlink:href="#path-3"></use>
                            </mask>
                            <g id="Clip-15"></g>
                            <path d="M9.29578111,0.0096 C4.02495375,0.9468 -0.00011465798,5.9556 -0.00011465798,11.9994 C-0.00011465798,17.9964 3.96590489,22.9728 9.17997655,23.9658 C9.34336417,23.9964 9.67357915,24.1248 9.67357915,23.5632 L9.67357915,20.9952 C9.67357915,20.4684 9.30151401,20.4426 9.1203544,20.388 C5.741957,19.4238 3.2441329,16.0368 3.2441329,11.9994 C3.2441329,7.842 5.88871922,4.3758 9.41846515,3.5316 C9.50216547,3.5094 9.67357915,3.5004 9.67357915,3.144 L9.67357915,0.3132 C9.67357915,-0.0342 9.42247818,-0.0096 9.29578111,0.0096" id="Fill-14" fill="#939598" mask="url(#mask-4)"></path>
                        </g>
                        <g id="Group-19" transform="translate(159.947883, 0.000000)">
                            <mask id="mask-6" fill="white">
                                <use xlink:href="#path-5"></use>
                            </mask>
                            <g id="Clip-18"></g>
                            <path d="M15.479114,2.57454 L15.479114,0.96114 C15.479114,0.45474 15.4131857,0.18654 14.8032052,0.18654 L6.00721824,0.18654 C1.99074919,0.18654 0.420508143,3.01194 0.420508143,6.14514 L0.420508143,17.85474 C0.420508143,20.98614 1.63932248,23.77734 6.00721824,23.77734 L14.7470228,23.77734 C15.3558567,23.77734 15.4212117,23.50854 15.4212117,23.00394 L15.4212117,21.38634 C15.4212117,20.81514 15.3558567,20.61474 14.7470228,20.61474 L6.00721824,20.61474 C4.3687557,20.61474 3.72495114,19.67394 3.72495114,18.32514 L3.72495114,16.41954 L3.72495114,12.74034 L3.72495114,9.77814 L3.72495114,8.26554 L3.72495114,5.63694 C3.72495114,4.02114 4.3687557,3.31614 6.00721824,3.31614 L14.8032052,3.31614 C15.4131857,3.31614 15.479114,3.14874 15.479114,2.57454" id="Fill-17" fill="#2DB5DA" mask="url(#mask-6)"></path>
                        </g>
                        <path d="M117.412753,0.18654 L115.063984,0.18654 C114.711411,0.18654 114.518786,0.32094 114.454577,0.62454 L108.167307,19.67394 L107.972962,19.67394 L106.947919,14.32134 L104.47532,1.87014 C104.313652,0.96114 103.89515,0.18654 102.581743,0.18654 L101.985522,0.18654 L101.389874,0.18654 C100.07188,0.18654 99.6539518,0.96114 99.4951505,1.87014 L97.0225511,14.32134 L95.9952156,19.67394 L95.8037368,19.67394 L89.5153199,0.62454 C89.4511114,0.32094 89.2573394,0.18654 88.9053394,0.18654 L86.5554241,0.18654 C86.2682059,0.18654 86.1701733,0.35334 86.2682059,0.65694 L93.3941993,22.39794 C93.618929,23.57514 94.230056,23.77734 95.2252873,23.77734 L96.7989681,23.77734 C97.7276977,23.77734 98.1146684,23.17194 98.3382515,22.12914 L100.906017,9.50634 L101.936219,4.12314 L101.985522,4.12314 L102.035398,4.12314 L103.062734,9.50634 L105.630499,22.12914 C105.856375,23.17194 106.242773,23.77734 107.169782,23.77734 L108.745756,23.77734 C109.742134,23.77734 110.353261,23.57514 110.575124,22.39794 L117.702838,0.65694 C117.79915,0.35334 117.702838,0.18654 117.412753,0.18654" id="Fill-20" fill="#2DB5DA"></path>
                        <path d="M169.681199,10.44894 L169.590619,10.44894 L166.409433,10.44894 C165.798879,10.44894 165.734671,10.71954 165.734671,11.22234 L165.734671,12.83814 C165.734671,13.41054 165.798879,13.57734 166.409433,13.57734 L169.590619,13.57734 L169.681199,13.57734 L172.467961,13.57734 C173.077368,13.57734 173.144443,13.41054 173.144443,12.83814 L173.144443,11.22234 C173.144443,10.71954 173.077368,10.44894 172.467961,10.44894 L169.681199,10.44894 Z" id="Fill-22" fill="#2DB5DA"></path>
                    </g>
                </g>
            </g>
        </g>
    </g>
</svg>