<svg version="1.1" class="svg_loader absloute_center" xmlns="http://www.w3.org/2000/svg" xmlns:xlink="http://www.w3.org/1999/xlink" x="0px" y="0px" width="100px" height="100px" viewBox="0 0 40.5 43.875" xml:space="preserve"> 
      <path class="p_tail" style="fill:#fff;" stroke="#2ECC71" stroke-width="0.5" stroke-miterlimit="10" d="M29.333,31.924c-0.013-0.003,0.009,0.105-0.088,0.278c-0.082,0.188-0.239,0.428-0.459,0.737
        c-0.446,0.611-1.142,1.485-2.142,2.483c-0.997,1-2.246,2.19-3.831,3.384c-1.574,1.204-3.445,2.481-5.745,3.504
        c-1.145,0.518-2.403,0.969-3.795,1.245c-1.387,0.273-2.934,0.337-4.521-0.021c-1.59-0.343-3.154-1.224-4.353-2.434l-0.432-0.468
        l-0.215-0.237l-0.107-0.119L3.49,40.064l-0.619-0.905c-0.203-0.325-0.422-0.56-0.615-0.963c-0.193-0.392-0.387-0.785-0.581-1.18
        c-1.418-3.121-1.887-6.561-1.519-9.946c0.129-0.834,0.206-1.687,0.388-2.515c0.209-0.83,0.337-1.645,0.622-2.492l0.353-1.139
        l0.461-1.228c0.296-0.842,0.681-1.57,1.023-2.358c0.793-1.504,1.652-2.977,2.685-4.336c0.508-0.684,1.052-1.344,1.623-1.978
        c0.575-0.624,1.201-1.264,1.756-1.776c0.578-0.543,1.104-1.084,1.719-1.623c0.624-0.529,1.246-1.055,1.863-1.578
        c1.32-0.962,2.596-1.955,4.047-2.67c2.783-1.613,5.794-2.439,8.652-2.86c1.433-0.216,2.854-0.29,4.231-0.23
        c0.345,0.028,0.687,0.055,1.025,0.083l0.252,0.021c0.161,0.012,0.179,0.025,0.275,0.037l0.464,0.073
        c0.596,0.079,1.251,0.221,1.89,0.369c1.244,0.332,2.424,0.7,3.466,1.343c1.03,0.625,1.94,1.413,2.524,2.368
        c0.56,0.958,0.863,1.961,0.89,2.878c0.046,0.456-0.025,0.887-0.035,1.295c-0.054,0.403-0.14,0.78-0.204,1.137
        c-0.357,1.404-0.85,2.409-1.194,3.078c-0.356,0.662-0.547,1.015-0.547,1.015s0.122-0.38,0.353-1.094
        c0.227-0.708,0.481-1.781,0.63-3.121c0.13-1.329-0.064-3.015-1.103-4.338c-1.071-1.304-3.002-2.067-5.199-2.381
        c-2.273-0.312-4.676-0.259-7.215,0.31c-2.52,0.557-5.12,1.499-7.467,2.975c-1.217,0.654-2.31,1.595-3.439,2.486
        c-0.536,0.495-1.075,0.992-1.617,1.492c-0.55,0.494-1.109,1.081-1.667,1.621c-0.59,0.563-1.054,1.061-1.545,1.605
        c-0.477,0.545-0.937,1.118-1.366,1.715c-0.878,1.184-1.604,2.49-2.289,3.809c-0.299,0.671-0.672,1.354-0.908,2.015l-0.399,1
        L4.784,23.21c-0.238,0.655-0.365,1.413-0.557,2.111c-0.17,0.713-0.237,1.436-0.364,2.149c-0.066,0.715-0.095,1.429-0.141,2.138
        c0.038,0.699,0.009,1.41,0.089,2.096c0.158,1.351,0.456,2.751,0.942,3.882l0.349,0.851c0.098,0.281,0.363,0.619,0.534,0.923
        l0.576,0.933l0.035,0.059l0.018,0.029c-0.135-0.191-0.027-0.041-0.053-0.078l0.07,0.087l0.14,0.175l0.275,0.351
        c0.769,0.89,1.712,1.521,2.787,1.84c2.161,0.639,4.644,0.218,6.777-0.501c2.153-0.737,4.081-1.709,5.729-2.668
        c1.647-0.967,3.037-1.915,4.148-2.74c1.105-0.833,1.956-1.523,2.487-2.042c0.266-0.256,0.465-0.47,0.568-0.622
        C29.321,32.034,29.321,31.917,29.333,31.924z"></path>      

      <polygon class="p_arrow" style="fill:#fff;" stroke="#2ECC71" stroke-width="0.5" points="19.361,32.839 27.796,33.583 29.22,42.12 35.177,25.744"></polygon>
  </svg>